<svg width="16" height="13" viewBox="0 0 16 13" fill="none" xmlns="http://www.w3.org/2000/svg">
<path fill-rule="evenodd" clip-rule="evenodd" d="M4.32227 12.9442H7.14697V10.0558H8.84486V12.9442H11.6696V0.012085H4.32227V12.9442ZM8.51133 1.53614H10.2092V3.23402H8.51133V1.53614ZM10.2092 4.26488H8.51133V5.96277H10.2092V4.26488ZM8.51133 6.99356H10.2092V8.69144H8.51133V6.99356ZM7.48047 1.53614H5.78262V3.23402H7.48047V1.53614ZM5.78262 4.26488H7.48047V5.96277H5.78262V4.26488ZM7.48047 6.99356H5.78262V8.69144H7.48047V6.99356Z" fill="#4CC8E9"/>
<path fill-rule="evenodd" clip-rule="evenodd" d="M12.3291 10.3146V1.17056H15.9916V12.9443H13.4199V10.3146H12.3291ZM13.1163 9.07248H14.662V7.52672H13.1163V9.07248ZM14.662 6.58816H13.1163V5.04243H14.662V6.58816ZM13.1163 4.10387H14.662V2.55814H13.1163V4.10387Z" fill="#4CC8E9"/>
<path fill-rule="evenodd" clip-rule="evenodd" d="M2.57168 12.9443H0V1.17056H3.66248V10.3146H2.57168V12.9443ZM2.87532 2.55814H1.32955V4.10387H2.87532V2.55814ZM1.32955 5.04243H2.87532V6.58816H1.32955V5.04243ZM2.87532 7.52665H1.32955V9.07239H2.87532V7.52665Z" fill="#4CC8E9"/>
</svg>
