<svg width="16" height="16" viewBox="0 0 16 16" fill="none" xmlns="http://www.w3.org/2000/svg">
<path d="M14.1333 14.9333V5.33334H10.4V7.46668V14.9333H9.86667V7.73334H6.13333V10.4V14.9333H5.6V10.6667H1.86667V14.9333H0V15.4667H16V14.9333H14.1333Z" fill="#4CC8E9"/>
<path fill-rule="evenodd" clip-rule="evenodd" d="M4.24862 8.93954C4.18605 9.1725 3.9745 9.33416 3.73329 9.33334C3.49207 9.33416 3.28053 9.1725 3.21796 8.93954C3.15539 8.70659 3.25746 8.46069 3.46662 8.34054V5.60001C3.46662 5.45273 3.58601 5.33334 3.73329 5.33334H7.24902C7.32927 5.10722 7.50717 4.92932 7.73329 4.84907V1.86667C7.73329 1.7194 7.85268 1.60001 7.99995 1.60001H10.4213C10.5612 0.630985 11.4259 -0.0653152 12.4025 0.00479785C13.379 0.0749109 14.1355 0.88761 14.1355 1.86667C14.1355 2.84573 13.379 3.65843 12.4025 3.72855C11.4259 3.79866 10.5612 3.10236 10.4213 2.13334H8.26662V4.84907C8.61768 4.97244 8.83692 5.32203 8.79509 5.69178C8.75326 6.06153 8.46148 6.35332 8.09173 6.39514C7.72198 6.43697 7.37239 6.21774 7.24902 5.86667H3.99995V8.34054C4.20911 8.46069 4.31119 8.70659 4.24862 8.93954ZM12 2.13334H12.5333C12.6806 2.13334 12.8 2.25273 12.8 2.40001C12.8 2.54728 12.6806 2.66667 12.5333 2.66667H12C11.8527 2.66667 11.7333 2.54728 11.7333 2.40001H11.2C11.2 2.84183 11.5581 3.20001 12 3.20001V3.46667H12.5333V3.20001C12.9751 3.20001 13.3333 2.84183 13.3333 2.40001C13.3333 1.95818 12.9751 1.60001 12.5333 1.60001H12C11.8527 1.60001 11.7333 1.48061 11.7333 1.33334C11.7333 1.18606 11.8527 1.06667 12 1.06667H12.5333C12.6806 1.06667 12.8 1.18606 12.8 1.33334H13.3333C13.3333 0.891511 12.9751 0.533339 12.5333 0.533339H12.5282L12.5333 0.271739L12 0.261605L11.9946 0.533339C11.5528 0.534811 11.1958 0.894177 11.1973 1.33601C11.1988 1.77783 11.5581 2.13481 12 2.13334Z" fill="#4CC8E9"/>
</svg>
