<svg width="64" height="40" viewBox="0 0 64 40" fill="none" xmlns="http://www.w3.org/2000/svg">
<path fill-rule="evenodd" clip-rule="evenodd" d="M43.4924 24.703C43.7926 24.703 44.0397 24.6092 44.2336 24.4215C44.4275 24.2339 44.5244 23.9899 44.5244 23.6897C44.5244 23.5459 44.4994 23.4114 44.4494 23.2863C44.3993 23.1612 44.3274 23.0517 44.2336 22.9579C44.1398 22.8641 44.0303 22.7906 43.9052 22.7374C43.7801 22.6843 43.6425 22.6577 43.4924 22.6577H43.4455C43.1265 22.6514 42.8763 22.5639 42.6949 22.395C42.5135 22.2261 42.4166 21.9822 42.4041 21.6632V13.4539C42.4041 13.3038 42.3744 13.1646 42.315 13.0364C42.2555 12.9081 42.1774 12.7971 42.0804 12.7033C41.9835 12.6095 41.8693 12.536 41.738 12.4828C41.6066 12.4297 41.469 12.4031 41.3251 12.4031C41.1813 12.4031 41.0484 12.4297 40.9264 12.4828C40.8044 12.536 40.6997 12.6095 40.6121 12.7033C40.5245 12.7971 40.4542 12.9081 40.401 13.0364C40.3478 13.1646 40.3213 13.3038 40.3213 13.4539V21.6163C40.3213 22.0791 40.4041 22.4998 40.5699 22.8782C40.7356 23.2566 40.9608 23.5818 41.2454 23.8539C41.53 24.126 41.8646 24.3355 42.2493 24.4825C42.6339 24.6295 43.0483 24.703 43.4924 24.703ZM35.0438 24.6045C34.6217 24.7389 34.176 24.8062 33.7069 24.8062C33.0814 24.8062 32.4919 24.6858 31.9384 24.445C31.3848 24.2042 30.9017 23.8774 30.4889 23.4645C30.076 23.0517 29.7492 22.5686 29.5084 22.015C29.2676 21.4615 29.1472 20.8688 29.1472 20.2371C29.1472 19.6054 29.2676 19.0112 29.5084 18.4545C29.7492 17.8978 30.076 17.4115 30.4889 16.9956C30.9017 16.5797 31.3848 16.2513 31.9384 16.0105C32.4919 15.7697 33.0814 15.6493 33.7069 15.6493C34.3386 15.6493 34.9313 15.7697 35.4848 16.0105C36.0383 16.2513 36.5215 16.5797 36.9343 16.9956C37.3471 17.4115 37.6724 17.8978 37.9101 18.4545C38.1478 19.0112 38.2666 19.6054 38.2666 20.2371V23.7179C38.2666 23.868 38.2384 24.0071 38.1822 24.1354C38.1259 24.2636 38.0508 24.3762 37.957 24.4731C37.8632 24.5701 37.7521 24.6467 37.6239 24.703C37.4957 24.7593 37.3565 24.7874 37.2064 24.7874C36.9562 24.7874 36.7451 24.7186 36.5731 24.581C36.4011 24.4434 36.2838 24.2651 36.2213 24.0462C35.8585 24.2839 35.466 24.47 35.0438 24.6045ZM32.7406 22.5263C33.0408 22.6577 33.3629 22.7234 33.7069 22.7234C34.0509 22.7234 34.3746 22.6577 34.6779 22.5263C34.9813 22.395 35.244 22.2167 35.466 21.9916C35.6881 21.7664 35.8632 21.5037 35.9914 21.2035C36.1197 20.9032 36.1838 20.5811 36.1838 20.2371C36.1838 19.8931 36.1197 19.571 35.9914 19.2708C35.8632 18.9705 35.6881 18.7078 35.466 18.4827C35.244 18.2575 34.9813 18.0808 34.6779 17.9526C34.3746 17.8244 34.0509 17.7602 33.7069 17.7602C33.3691 17.7602 33.0502 17.8244 32.7499 17.9526C32.4497 18.0808 32.187 18.2575 31.9618 18.4827C31.7367 18.7078 31.56 18.9705 31.4318 19.2708C31.3035 19.571 31.2394 19.8931 31.2394 20.2371C31.2394 20.5811 31.3035 20.9032 31.4318 21.2035C31.56 21.5037 31.7351 21.7664 31.9571 21.9916C32.1792 22.2167 32.4403 22.395 32.7406 22.5263ZM49.8441 24.4215C49.6502 24.6092 49.4031 24.703 49.1029 24.703C48.6588 24.703 48.2444 24.6295 47.8598 24.4825C47.4751 24.3355 47.1405 24.126 46.8559 23.8539C46.5713 23.5818 46.3461 23.2566 46.1804 22.8782C46.0146 22.4998 45.9317 22.0791 45.9317 21.6163V13.4539C45.9317 13.3038 45.9583 13.1646 46.0115 13.0364C46.0647 12.9081 46.135 12.7971 46.2226 12.7033C46.3102 12.6095 46.4149 12.536 46.5369 12.4828C46.6589 12.4297 46.7918 12.4031 46.9356 12.4031C47.0795 12.4031 47.2171 12.4297 47.3484 12.4828C47.4798 12.536 47.5939 12.6095 47.6909 12.7033C47.7878 12.7971 47.866 12.9081 47.9254 13.0364C47.9849 13.1646 48.0146 13.3038 48.0146 13.4539V21.6632C48.0271 21.9822 48.124 22.2261 48.3054 22.395C48.4868 22.5639 48.737 22.6514 49.056 22.6577H49.1029C49.253 22.6577 49.3906 22.6843 49.5157 22.7374C49.6408 22.7906 49.7502 22.8641 49.8441 22.9579C49.9379 23.0517 50.0098 23.1612 50.0599 23.2863C50.1099 23.4114 50.1349 23.5459 50.1349 23.6897C50.1349 23.9899 50.038 24.2339 49.8441 24.4215ZM52.3585 14.7204C52.5148 14.7204 52.6618 14.6907 52.7994 14.6313C52.937 14.5719 53.0574 14.4906 53.1606 14.3874C53.2638 14.2842 53.3467 14.1638 53.4093 14.0262C53.4718 13.8886 53.5031 13.7385 53.5031 13.5758C53.5031 13.4195 53.4718 13.2725 53.4093 13.1349C53.3467 12.9973 53.2638 12.8769 53.1606 12.7737C53.0574 12.6705 52.937 12.5892 52.7994 12.5297C52.6618 12.4703 52.5148 12.4406 52.3585 12.4406C52.1958 12.4406 52.0457 12.4703 51.9081 12.5297C51.7705 12.5892 51.6501 12.6705 51.5469 12.7737C51.4437 12.8769 51.3624 12.9973 51.303 13.1349C51.2436 13.2725 51.2139 13.4195 51.2139 13.5758C51.2139 13.7385 51.2436 13.8886 51.303 14.0262C51.3624 14.1638 51.4437 14.2842 51.5469 14.3874C51.6501 14.4906 51.7705 14.5719 51.9081 14.6313C52.0457 14.6907 52.1958 14.7204 52.3585 14.7204ZM52.7619 24.7077C52.6368 24.7608 52.5023 24.7874 52.3585 24.7874C52.2146 24.7874 52.0786 24.7608 51.9503 24.7077C51.8221 24.6545 51.7095 24.581 51.6126 24.4872C51.5156 24.3934 51.439 24.2839 51.3827 24.1588C51.3264 24.0337 51.2983 23.8992 51.2983 23.7554V16.6907C51.2983 16.5531 51.3264 16.4202 51.3827 16.2919C51.439 16.1637 51.5156 16.0527 51.6126 15.9589C51.7095 15.8651 51.8237 15.79 51.955 15.7337C52.0864 15.6774 52.224 15.6493 52.3678 15.6493C52.5117 15.6493 52.6462 15.6774 52.7713 15.7337C52.8964 15.79 53.0043 15.8651 53.095 15.9589C53.1857 16.0527 53.2576 16.1637 53.3107 16.2919C53.3639 16.4202 53.3905 16.5531 53.3905 16.6907V23.7554C53.3905 23.8992 53.3639 24.0337 53.3107 24.1588C53.2576 24.2839 53.1841 24.3934 53.0903 24.4872C52.9964 24.581 52.887 24.6545 52.7619 24.7077ZM59.3575 24.8062C59.9892 24.8062 60.5834 24.6858 61.1401 24.445C61.6968 24.2042 62.1815 23.8774 62.5943 23.4645C63.0071 23.0517 63.3339 22.5686 63.5747 22.015C63.8155 21.4615 63.9359 20.8688 63.9359 20.2371C63.9359 19.6054 63.8155 19.0112 63.5747 18.4545C63.3339 17.8978 63.0071 17.4115 62.5943 16.9956C62.1815 16.5797 61.6968 16.2513 61.1401 16.0105C60.5834 15.7697 59.9892 15.6493 59.3575 15.6493C58.7258 15.6493 58.1331 15.7697 57.5796 16.0105C57.026 16.2513 56.5413 16.5797 56.1254 16.9956C55.7094 17.4115 55.3811 17.8978 55.1403 18.4545C54.8994 19.0112 54.779 19.6054 54.779 20.2371C54.779 20.8688 54.8994 21.4615 55.1403 22.015C55.3811 22.5686 55.7094 23.0517 56.1254 23.4645C56.5413 23.8774 57.026 24.2042 57.5796 24.445C58.1331 24.6858 58.7258 24.8062 59.3575 24.8062ZM58.3911 22.5263C58.6914 22.6577 59.0135 22.7234 59.3575 22.7234C59.7078 22.7234 60.0346 22.6577 60.3379 22.5263C60.6413 22.395 60.9055 22.2167 61.1307 21.9916C61.3559 21.7664 61.5326 21.5037 61.6608 21.2035C61.789 20.9032 61.8531 20.5811 61.8531 20.2371C61.8531 19.8931 61.7874 19.571 61.6561 19.2708C61.5247 18.9705 61.3465 18.7078 61.1213 18.4827C60.8962 18.2575 60.6319 18.0808 60.3285 17.9526C60.0252 17.8244 59.7015 17.7602 59.3575 17.7602C59.0197 17.7602 58.6992 17.8244 58.3958 17.9526C58.0925 18.0808 57.8282 18.2575 57.603 18.4827C57.3779 18.7078 57.1996 18.9705 57.0683 19.2708C56.9369 19.571 56.8712 19.8931 56.8712 20.2371C56.8712 20.5811 56.9369 20.9032 57.0683 21.2035C57.1996 21.5037 57.3779 21.7664 57.603 21.9916C57.8282 22.2167 58.0909 22.395 58.3911 22.5263Z" fill="#4CC8E9"/>
<path d="M26.5027 27.6402C23.5275 30.1644 19.3564 30.7291 15.8171 29.0869C12.2778 27.4446 10.0158 23.895 10.0222 19.9933C9.96494 22.6939 7.75925 24.8533 5.058 24.8533C2.35675 24.8533 0.151056 22.6939 0.093754 19.9933C0.0888659 27.7635 4.59866 34.8286 11.6487 38.0955C18.6987 41.3624 27.0044 40.2358 32.9295 35.2089C34.9633 33.4201 35.1883 30.3313 33.4351 28.2667C31.6819 26.202 28.5976 25.9233 26.5027 27.6402Z" fill="#4CC8E9"/>
<path d="M5.05915 15.0279C7.80057 15.0292 10.0223 17.2519 10.0223 19.9933C10.0352 16.0872 12.3182 12.5452 15.8703 10.9204C19.4223 9.29559 23.595 9.88454 26.5586 12.429C28.6363 14.2186 31.7713 13.9849 33.5608 11.9072C35.3503 9.82955 35.1167 6.69454 33.039 4.90501C27.1348 -0.176943 18.8118 -1.35515 11.729 1.88839C4.64626 5.13192 0.101004 12.2032 0.0915527 19.9933C0.0915526 18.676 0.614994 17.4127 1.54666 16.4814C2.47833 15.5502 3.74187 15.0273 5.05915 15.0279Z" fill="#FF6FBC"/>
<path d="M5.05911 24.9564C7.06762 24.9564 8.87831 23.7464 9.64672 21.8907C10.4151 20.035 9.98991 17.8991 8.56936 16.4792C7.14882 15.0593 5.01276 14.635 3.1574 15.4043C1.30205 16.1735 0.0928466 17.9848 0.0937505 19.9933C0.0949843 22.7347 2.31769 24.9564 5.05911 24.9564Z" fill="white"/>
</svg>
