<svg width="55" height="55" viewBox="0 0 55 55" fill="none" xmlns="http://www.w3.org/2000/svg">
<path d="M55 55.0002H0V17.2638H2.20173V52.834H52.7983V24.1919H55V55.0002Z" fill="#2F2F2F"/>
<path d="M17.6666 18.3492H0V9.68909H17.6666V11.8553H2.20173V16.183H17.6666V18.3492Z" fill="#2F2F2F"/>
<path d="M6.82087 12.936H4.61914V15.1022H6.82087V12.936Z" fill="#2F2F2F"/>
<path d="M11.2193 12.936H9.01758V15.1022H11.2193V12.936Z" fill="#2F2F2F"/>
<path d="M15.6236 12.936H13.4219V15.1022H15.6236V12.936Z" fill="#2F2F2F"/>
<path d="M24.3723 26.9999V20.7278H21.1873H4.61914V50.4553H50.3805V20.7278H30.7473L24.3723 26.9999Z" fill="#ACB6C8"/>
<path d="M34.2447 33.6873H32.043V35.8535H34.2447V33.6873Z" fill="#2F2F2F"/>
<path d="M38.6422 33.6873H36.4453V35.8535H38.6422V33.6873Z" fill="#2F2F2F"/>
<path d="M43.0455 33.6873H40.8438V35.8535H43.0455V33.6873Z" fill="#2F2F2F"/>
<path d="M24.6451 50.4553H9.37695V45.4244C9.37695 44.3059 9.80866 43.1827 10.6817 42.3285C11.5451 41.4743 12.6867 41.0448 13.8284 41.0448H20.1841C21.3258 41.0448 22.4578 41.4743 23.3356 42.3285C24.2086 43.1827 24.6403 44.3059 24.6403 45.4244V50.4553H24.6451Z" fill="white"/>
<path d="M21.4614 34.7727C21.4614 37.189 19.4756 39.157 17.01 39.157C14.5445 39.157 12.5586 37.1937 12.5586 34.7727C12.5586 32.3516 14.5541 30.3931 17.01 30.3931C19.466 30.3931 21.4614 32.3563 21.4614 34.7727Z" fill="white"/>
<path d="M23.2749 29.6097V21.8085H20.0898V0.00012207H55.0009V21.8085H31.204L23.2749 29.6097ZM22.2868 19.6423H25.4718V24.3806L30.2878 19.6423H52.7944V2.16633H22.2868V19.647V19.6423Z" fill="#2F2F2F"/>
<path d="M50.3814 4.54492H24.709V17.2637H50.3814V4.54492Z" fill="#3A6FFF"/>
<path d="M46.7887 7.65967H28.3066V9.82588H46.7887V7.65967Z" fill="white"/>
<path d="M37.5453 11.9873H28.3066V14.1535H37.5453V11.9873Z" fill="white"/>
</svg>
