<svg width="17" height="16" viewBox="0 0 17 16" fill="none" xmlns="http://www.w3.org/2000/svg">
<path fill-rule="evenodd" clip-rule="evenodd" d="M6.00378 14C2.69712 14 0.00378418 11.3067 0.00378418 8C0.00378418 4.69333 2.69712 2 6.00378 2C7.11712 2 8.15712 2.30667 9.05045 2.84L8.31712 3.57333C7.62378 3.20667 6.83712 3 6.00378 3C3.24378 3 1.00378 5.24 1.00378 8C1.00378 10.76 3.24378 13 6.00378 13C6.17045 13 6.33712 12.9933 6.50378 12.9733C6.59045 13.3133 6.71045 13.6333 6.85712 13.94C6.57712 13.98 6.29045 14 6.00378 14ZM10.4371 5.69333L11.1705 4.96C11.4238 5.38667 11.6238 5.84667 11.7638 6.33333H11.6771C11.3571 6.33333 11.0438 6.36 10.7438 6.41333C10.6638 6.16667 10.5571 5.92667 10.4371 5.69333Z" fill="#4CC8E9"/>
<path d="M2.33716 7.99967C2.33716 10.0197 3.98382 11.6663 6.00382 11.6663C6.11716 11.6663 6.23049 11.6597 6.34382 11.6463C6.34382 11.2997 6.37716 10.9597 6.44382 10.6263C6.30382 10.653 6.15716 10.6663 6.00382 10.6663C4.53049 10.6663 3.33716 9.47301 3.33716 7.99967C3.33716 6.52634 4.53049 5.33301 6.00382 5.33301C6.17716 5.33301 6.34382 5.34634 6.50382 5.38634L7.31049 4.57967C6.90382 4.41967 6.46382 4.33301 6.00382 4.33301C3.98382 4.33301 2.33716 5.97967 2.33716 7.99967H2.33716Z" fill="#4CC8E9"/>
<path fill-rule="evenodd" clip-rule="evenodd" d="M4.67041 8.00033C4.67041 7.26699 5.27041 6.66699 6.00374 6.66699C6.73708 6.66699 7.33708 7.26699 7.33708 8.00033C7.33708 8.73366 6.73708 9.33366 6.00374 9.33366C5.27041 9.33366 4.67041 8.73366 4.67041 8.00033ZM5.67041 8.00033C5.67041 8.18699 5.81708 8.33366 6.00374 8.33366C6.19041 8.33366 6.33708 8.18699 6.33708 8.00033C6.33708 7.81366 6.19041 7.66699 6.00374 7.66699C5.81708 7.66699 5.67041 7.81366 5.67041 8.00033Z" fill="#4CC8E9"/>
<path d="M6.01045 8.49985C5.88245 8.49985 5.75445 8.45118 5.65712 8.35318C5.46179 8.15785 5.46179 7.84118 5.65712 7.64585L9.99045 3.31252C10.1858 3.11718 10.5025 3.11718 10.6978 3.31252C10.8931 3.50785 10.8931 3.82452 10.6978 4.01985L6.36445 8.35318C6.26645 8.45118 6.13845 8.49985 6.01045 8.49985V8.49985Z" fill="#4CC8E9"/>
<path d="M12.1772 3.9999H10.5105C10.2345 3.9999 10.0105 3.7759 10.0105 3.4999V1.83324C10.0105 1.70057 10.0632 1.57324 10.1572 1.4799L11.4905 0.146572C11.6338 0.00390486 11.8492 -0.0394285 12.0352 0.0379049C12.2218 0.115238 12.3438 0.297905 12.3438 0.499905V1.66657H13.5105C13.7125 1.66657 13.8952 1.78857 13.9725 1.97524C14.0498 2.1619 14.0072 2.37724 13.8638 2.5199L12.5305 3.85324C12.4372 3.94724 12.3098 3.9999 12.1772 3.9999Z" fill="#4CC8E9"/>
<path fill-rule="evenodd" clip-rule="evenodd" d="M7.34375 11.6663C7.34375 9.27701 9.28775 7.33301 11.6771 7.33301C14.0664 7.33301 16.0104 9.27701 16.0104 11.6663C16.0104 14.0557 14.0664 15.9997 11.6771 15.9997C9.28775 15.9997 7.34375 14.0557 7.34375 11.6663ZM11.3771 13.173L13.5437 10.8397C13.7318 10.6377 13.7197 10.321 13.5171 10.133C13.3144 9.94567 12.9984 9.95701 12.8104 10.1597L10.9718 12.1403L10.1697 11.453C9.95908 11.2723 9.64442 11.297 9.46442 11.507C9.28442 11.717 9.30908 12.0323 9.51842 12.2123L10.6851 13.2123C10.7791 13.293 10.8951 13.333 11.0104 13.333C11.1444 13.333 11.2784 13.279 11.3771 13.173Z" fill="#4CC8E9"/>
</svg>
