<svg width="16" height="13" viewBox="0 0 16 13" fill="none" xmlns="http://www.w3.org/2000/svg">
<path fill-rule="evenodd" clip-rule="evenodd" d="M12.432 0.248L15.932 6.248C15.977 6.325 16 6.412 16 6.5V12C16 12.552 15.552 13 15 13H1C0.449 13 0 12.552 0 12V6.5C0 6.412 0.023 6.325 0.068 6.248L3.568 0.248C3.658 0.094 3.822 0 4 0H12C12.178 0 12.342 0.094 12.432 0.248ZM12.053 6.276C12.138 6.107 12.311 6 12.5 6H14.63L11.713 1H4.287L1.37 6H3.5C3.69 6 3.863 6.107 3.948 6.276L4.81 8H11.191L12.053 6.276Z" fill="#4CC8E9"/>
<path d="M10.5 2H5.5C5.224 2 5 2.224 5 2.5C5 2.776 5.224 3 5.5 3H10.5C10.776 3 11 2.776 11 2.5C11 2.224 10.776 2 10.5 2Z" fill="#4CC8E9"/>
<path d="M11.5 4H4.5C4.224 4 4 4.224 4 4.5C4 4.776 4.224 5 4.5 5H11.5C11.776 5 12 4.776 12 4.5C12 4.224 11.776 4 11.5 4Z" fill="#4CC8E9"/>
</svg>
