<svg width="16" height="16" viewBox="0 0 16 16" fill="none" xmlns="http://www.w3.org/2000/svg">
<path d="M8.49377 5.51746C8.33398 5.48572 8.16895 5.46875 8 5.46875C6.60425 5.46875 5.46875 6.60425 5.46875 8C5.46875 9.39575 6.60425 10.5312 8 10.5312C9.39575 10.5312 10.5312 9.39575 10.5312 8C10.5312 7.83105 10.5143 7.66602 10.4825 7.50623L8.99438 8.99438C8.72876 9.26001 8.37561 9.40625 8 9.40625C7.62439 9.40625 7.27124 9.26001 7.00562 8.99438C6.73999 8.72876 6.59375 8.37561 6.59375 8C6.59375 7.62439 6.73999 7.27124 7.00562 7.00562L8.49377 5.51746Z" fill="#4CC8E9"/>
<path d="M15.2841 4.69336L14.2755 5.7019C14.1746 5.80286 14.0608 5.8866 13.938 5.95154C14.1602 6.59399 14.2812 7.28308 14.2812 8C14.2812 11.4635 11.4635 14.2812 8 14.2812C4.5365 14.2812 1.71875 11.4635 1.71875 8C1.71875 4.5365 4.5365 1.71875 8 1.71875C8.71716 1.71875 9.40662 1.83997 10.0492 2.06226C10.1143 1.93933 10.1974 1.82507 10.2982 1.72437L11.3066 0.715942C10.2982 0.256348 9.17859 0 8 0C3.58875 0 0 3.58875 0 8C0 12.4113 3.58875 16 8 16C12.4113 16 16 12.4113 16 8C16 6.82141 15.7437 5.70178 15.2841 4.69336Z" fill="#4CC8E9"/>
<path d="M9.99097 4.02026L9.90552 3.00757C9.31335 2.78064 8.67102 2.65625 8 2.65625C5.05347 2.65625 2.65625 5.05347 2.65625 8C2.65625 10.9465 5.05347 13.3438 8 13.3438C10.9465 13.3438 13.3438 10.9465 13.3438 8C13.3438 7.32898 13.2194 6.68665 12.9924 6.09448L11.9797 6.00903L11.2365 6.7522C11.3864 7.13965 11.4688 7.5603 11.4688 8C11.4688 9.91272 9.91272 11.4688 8 11.4688C6.08728 11.4688 4.53125 9.91272 4.53125 8C4.53125 6.08728 6.08728 4.53125 8 4.53125C8.4397 4.53125 8.86035 4.61365 9.2478 4.76355L9.99097 4.02026Z" fill="#4CC8E9"/>
<path d="M10.8253 2.75817L10.9618 4.37535L7.66858 7.66857C7.48547 7.85155 7.48547 8.14843 7.66858 8.33141C7.76001 8.42296 7.88 8.46874 8 8.46874C8.12 8.46874 8.23999 8.42296 8.33142 8.33141L11.6246 5.0382L13.2418 5.17455C13.255 5.17565 13.2681 5.17626 13.2812 5.17626C13.405 5.17626 13.5244 5.12718 13.6127 5.03893L15.6013 3.05016C15.7303 2.92125 15.7728 2.72911 15.7102 2.55773C15.6475 2.38634 15.4911 2.26696 15.3093 2.2517L13.8696 2.13024L13.7483 0.690661C13.7329 0.508777 13.6135 0.352405 13.4423 0.289783C13.2709 0.227038 13.0787 0.269641 12.9497 0.398547L10.9611 2.38732C10.8634 2.48497 10.8137 2.62059 10.8253 2.75817V2.75817Z" fill="#4CC8E9"/>
</svg>
