<svg width="16" height="15" viewBox="0 0 16 15" fill="none" xmlns="http://www.w3.org/2000/svg">
<path d="M13.0663 9.43439L10.1579 9.28164L8.56375 11.9781C8.40318 12.2497 8.19971 12.3994 7.99051 12.3994C7.77881 12.3994 7.57519 12.2462 7.41728 11.9679L5.88753 9.27408L2.8924 9.43439C2.09157 9.47624 1.1446 9.79681 0.736678 10.1641C0.323544 10.536 0 11.4611 0 12.2705V13.1685C0 14.0065 0.682059 14.6884 1.5199 14.6884H14.4391C15.277 14.6884 15.959 14.0065 15.959 13.1685V12.2705C15.959 11.4611 15.6354 10.536 15.2223 10.1641C14.8137 9.79713 13.8669 9.4765 13.0663 9.43439Z" fill="#4CC8E9"/>
<path d="M7.70087 11.5707C7.82272 11.8509 8.03797 11.8589 8.18113 11.5893L8.66812 10.6725L8.10572 10.0718L8.53183 9.62925L7.97918 9.30222L7.4381 9.6131L7.85071 10.063L7.28857 10.6262L7.70087 11.5707Z" fill="#4CC8E9"/>
<path fill-rule="evenodd" clip-rule="evenodd" d="M3.76514 4.30308C3.76514 1.94123 5.6866 0.0197144 8.0485 0.0197144C10.4104 0.0197144 12.3319 1.94123 12.3321 4.30318C12.3321 4.81054 12.2387 5.29549 12.076 5.74792L15.3833 7.22477C15.8188 7.36507 16.0064 7.81093 15.8021 8.22057L15.4632 8.89982C15.2583 9.30946 14.7906 9.42547 14.4182 9.15941L11.3811 6.98831C10.595 7.96145 9.39406 8.58649 8.0485 8.58649C5.6866 8.58649 3.76514 6.66498 3.76514 4.30308ZM4.87049 4.30308C4.87049 6.05541 6.29626 7.48108 8.0485 7.48108C9.80079 7.48108 11.2265 6.05541 11.2265 4.30308C11.2265 2.55079 9.80079 1.12507 8.0485 1.12507C6.29621 1.12507 4.87049 2.55084 4.87049 4.30308Z" fill="#4CC8E9"/>
<path d="M8.04831 1.58636C6.55025 1.58636 5.33154 2.80507 5.33154 4.30313C5.33154 4.37938 5.39346 4.4413 5.46971 4.4413C5.54595 4.4413 5.60787 4.37938 5.60787 4.30313C5.60787 2.95757 6.70244 1.86274 8.04831 1.86274C8.12456 1.86274 8.18647 1.80083 8.18647 1.72458C8.18647 1.64833 8.12456 1.58636 8.04831 1.58636Z" fill="#4CC8E9"/>
</svg>
